<svg width="55" height="55" viewBox="0 0 55 55" fill="none" xmlns="http://www.w3.org/2000/svg">
<g clip-path="url(#clip0)">
<path d="M39.1726 41.7608C33.8162 41.7608 26.9869 38.3051 21.0414 32.5101C20.7736 33.2544 20.4523 33.9722 20.1309 34.6633C18.0687 38.8101 15.1227 41.0696 11.8286 41.0696C8.53446 41.0696 5.53493 38.8367 3.47275 34.7962C1.54448 31.1279 0.5 26.157 0.5 20.8671C0.5 12.2279 3.36563 4.94431 7.99883 1.83418C11.2126 -0.318983 15.2566 -0.584806 19.6756 1.0633C23.425 2.44557 27.469 5.21013 31.4595 9.11773C31.8076 8.18735 32.2361 7.25697 32.745 6.37975C34.8339 2.7114 37.7531 0.691143 40.9401 0.691143C47.3141 0.691143 52.108 9.35697 52.108 20.8671C52.108 25.8646 51.1975 30.4367 49.4567 34.1317C48.7068 35.8063 47.6623 37.3215 46.4036 38.6772C45.3055 39.8734 43.9129 40.7772 42.3596 41.3089C41.3419 41.6013 40.2706 41.7608 39.1726 41.7608ZM21.8717 29.8519C29.3437 37.6139 37.3782 40.3253 41.6097 38.943C43.779 38.2253 45.7608 36.1519 47.207 33.0684C48.7871 29.719 49.6174 25.4924 49.6174 20.8671C49.6174 15.976 48.68 11.4304 46.9392 8.05443C45.3055 4.89114 43.1898 3.13671 40.9401 3.13671C37.6996 3.13671 34.8875 6.35317 33.3877 11.1114C39.4136 17.7038 43.3773 25.7582 43.0291 30.9152C42.8952 32.776 42.2257 34.238 41.074 35.1949L40.9669 35.2747C39.6814 36.1253 38.1816 36.1785 36.7087 35.381C32.8789 33.3608 29.7722 25.9443 29.7722 18.9C29.7722 16.5076 30.04 14.1152 30.6292 11.776C22.4876 3.37595 14.5603 0.425321 9.39147 3.88102C5.48137 6.48608 2.9639 13.1582 2.9639 20.8671C2.9639 30.8354 6.84723 38.6241 11.8018 38.6241C14.8817 38.6241 17.5598 35.4342 19.0864 30.5165C15.1227 26.1038 12.1232 21.1861 10.6234 16.6139C9.17722 12.1481 9.33791 8.53292 11.0787 6.72532C12.2035 5.5557 13.864 5.2633 15.6316 5.98102C19.2739 7.44304 22.9965 12.9456 22.9965 20.6279C22.9965 23.738 22.6216 26.8215 21.8717 29.8519ZM32.6914 14.0354C32.3968 15.6304 32.2629 17.2785 32.2629 18.9C32.2629 25.5722 35.2357 31.7924 37.887 33.2013C38.6905 33.6266 39.1993 33.4671 39.5475 33.2279C40.1367 32.7228 40.4849 31.8722 40.5652 30.7557C40.833 26.5823 37.5924 19.8038 32.6914 14.0354ZM13.7836 8.05443C13.4355 8.05443 13.1141 8.18735 12.8731 8.42659C12.0696 9.25064 11.6411 11.6962 12.9802 15.843C14.2122 19.6709 16.6225 23.7646 19.8363 27.5658C20.2916 25.2532 20.5058 22.9405 20.479 20.6013C20.5058 13.2911 16.9439 9.17089 14.6942 8.26709C14.3996 8.13418 14.105 8.08102 13.7836 8.05443Z" fill="#47D7AC"/>
</g>
<defs>
<clipPath id="clip0">
<rect width="90.304" height="42" fill="white" transform="translate(0.5)"/>
</clipPath>
</defs>
</svg>
